<svg xmlns="http://www.w3.org/2000/svg" viewBox="0 0 128 128">
  <title>about</title>
  <path d="M105.5,0H97.56L66.07,31.48H61.93L30.44,0H22.5L54,31.48H24.64V128h78.72V31.48H74ZM86.58,79a63.88,63.88,0,0,0-13,3.27c-3.54,1.21-7.7,3.47-11.51,3.44-5.85,0-3.48-5.49-.53-9.78-6.15,1.63-12.14,3.81-18.11,6-2.42.9-3.46-3-1.06-3.86,7.83-2.9,15.69-5.76,23.91-7.37,1.84-.36,3.51,1.89,1.95,3.34a22.56,22.56,0,0,0-3.62,4.2,16.94,16.94,0,0,0-2,3.57c1.6-.15,5-1.7,5.64-1.94,2-.71,4-1.42,6-2.08A63.9,63.9,0,0,1,86.58,75C89.13,74.66,89.1,78.66,86.58,79ZM77.5,38.24a3.38,3.38,0,0,1,0,6.75h-27a3.38,3.38,0,0,1,0-6.75H60.73L62,39.52a2.82,2.82,0,0,0,4,0l1.28-1.28Z"/>
</svg>
