<svg xmlns="http://www.w3.org/2000/svg" viewBox="0 0 128 128">
  <title>groups</title>
  <g id="Layer_13" data-name="Layer 13">
    <path d="M77.24128,28.62705A23.26586,23.26586,0,0,1,88.06557,45.91266,18.76578,18.76578,0,1,0,77.24128,28.62705ZM64.93944,67.06394A18.7692,18.7692,0,1,0,46.16628,48.29877,18.76745,18.76745,0,0,0,64.93944,67.06394Zm7.965,1.27995H56.97655A24.06924,24.06924,0,0,0,32.93791,92.38246v19.484l.05393.30346,1.34186.4213A109.48839,109.48839,0,0,0,67.014,117.85667c17.66706,0,27.90028-5.03173,28.53924-5.35926l1.2479-.63092H96.935v-19.484A24.05856,24.05856,0,0,0,72.9044,68.34389Zm31.057-19.37423H88.15935a23.12993,23.12993,0,0,1-7.14423,16.11359,28.5517,28.5517,0,0,1,20.40449,27.33114v5.99816c15.60639-.57109,24.59966-4.99182,25.19268-5.28936l1.248-.63891H128v-19.484a24.06238,24.06238,0,0,0-24.03857-24.03059Zm-71.96-1.27994a18.6504,18.6504,0,0,0,9.98369-2.90119,23.26546,23.26546,0,0,1,8.73561-14.81974c.016-.34941.05594-.69284.05594-1.05223A18.77423,18.77423,0,1,0,32.00146,47.68972ZM48.86583,65.08325a23.15477,23.15477,0,0,1-7.13832-16.02773c-.585-.04-1.17007-.08586-1.76109-.08586H24.03851A24.05726,24.05726,0,0,0,0,73.00025v19.484l.04588.30352,1.34186.42131a112.68222,112.68222,0,0,0,27.07351,5.08565V92.41439A28.55169,28.55169,0,0,1,48.86583,65.08325Zm0,0"/>
  </g>
</svg>
