<svg xmlns="http://www.w3.org/2000/svg" viewBox="0 0 128 128">
  <title>tickets</title>
  <path d="M123.36,56.46l4.43,15.86a5.92,5.92,0,0,1-4.11,7.29L108,84a1.48,1.48,0,1,0-1.82-1A1.48,1.48,0,0,0,108,84L21,108.26a5.92,5.92,0,0,1-7.29-4.11L9.37,88.47A8.88,8.88,0,0,0,4.6,71.36L.22,55.68a5.92,5.92,0,0,1,4.11-7.29l87-24.27a1.48,1.48,0,1,0,1.82,1,1.48,1.48,0,0,0-1.82-1L107,19.74a5.92,5.92,0,0,1,7.29,4.11l4.33,15.5a8.88,8.88,0,0,0,4.77,17.11ZM30.12,65.74l-2,.57L26.59,82.12l2-.56L29,76.79l6-1.67L37.8,79l2.16-.6Zm21.31-2a6,6,0,0,0-2.37-2,5,5,0,0,0-2.38-.44,12.41,12.41,0,0,0-2.6.51l-4.92,1.37,4,14.29,5.16-1.44a10,10,0,0,0,2.23-.89A5.55,5.55,0,0,0,52,74,5.38,5.38,0,0,0,53,72.33,7.33,7.33,0,0,0,53.37,70a10.33,10.33,0,0,0-.42-3A10,10,0,0,0,51.44,63.74Zm15.75-8.35-2.55.71L64,67c-.06,1.11-.11,1.94-.13,2.5q-.41-.64-1.27-1.92l-6.21-9.17-2.84.79,4,14.29L59.35,73,56,60.82l7.52,11,1.71-.48L66,58.23l3.34,12,1.83-.51-4-14.29Zm5.27-1.47-1.89.53,4,14.29,1.89-.53ZM86.54,50,75.21,53.15l.47,1.68,4.71-1.31,3.52,12.61,1.89-.53L82.28,53,87,51.67,86.54,50Zm6.33-20.17a1.48,1.48,0,1,0,1.82,1A1.48,1.48,0,0,0,92.87,29.82Zm1.59,5.7a1.48,1.48,0,1,0,1.82,1A1.48,1.48,0,0,0,94.46,35.52Zm1.59,5.7a1.48,1.48,0,1,0,1.82,1A1.48,1.48,0,0,0,96.06,41.23Zm1.59,5.7a1.48,1.48,0,1,0,1.82,1A1.48,1.48,0,0,0,97.65,46.93Zm1.59,5.7a1.48,1.48,0,1,0,1.82,1A1.48,1.48,0,0,0,99.24,52.63Zm1.59,5.7a1.48,1.48,0,1,0,1.82,1A1.48,1.48,0,0,0,100.83,58.33Zm1.59,5.7a1.48,1.48,0,1,0,1.82,1A1.48,1.48,0,0,0,102.42,64Zm1.59,5.7a1.48,1.48,0,1,0,1.82,1A1.48,1.48,0,0,0,104,69.73Zm1.59,5.7a1.48,1.48,0,1,0,1.82,1A1.48,1.48,0,0,0,105.6,75.44Zm-54.76-3a3.35,3.35,0,0,1-1.08,1.1,7.62,7.62,0,0,1-2.14.88l-3.05.85-3-10.92,3-.84a7.6,7.6,0,0,1,2.53-.39,3.84,3.84,0,0,1,2.24,1.11A6.91,6.91,0,0,1,51,67.5a9.17,9.17,0,0,1,.39,2.86A4.74,4.74,0,0,1,50.84,72.46Zm-21.38-2a19.59,19.59,0,0,0,0-2.94q.66,1.07,1.84,2.68l2.59,3.54-4.84,1.35Z"/>
</svg>
